<svg width="16" height="16" viewBox="0 0 16 16" fill="none" xmlns="http://www.w3.org/2000/svg">
<path opacity="0.7" fill-rule="evenodd" clip-rule="evenodd" d="M10.3706 16C10.352 16 10.3342 15.9991 10.3164 15.9982C9.91463 15.9742 9.57951 15.6827 9.49951 15.288L8.13238 8.56204C8.06127 8.21183 7.78838 7.93895 7.43815 7.86785L0.711832 6.4999C0.31716 6.42079 0.0256006 6.08569 0.00160029 5.68392C-0.0224 5.28127 0.225603 4.91329 0.607831 4.78707L14.8303 0.0467923C15.1494 -0.0616482 15.5014 0.0219043 15.7396 0.261007C15.9778 0.499221 16.0605 0.851208 15.9547 1.17031L11.2133 15.392C11.0924 15.7573 10.7511 16 10.3706 16Z" fill="#E3E4EC"/>
</svg>
