<svg width="71" height="71" viewBox="0 0 71 71" fill="none" xmlns="http://www.w3.org/2000/svg">
<circle cx="35.5" cy="35.5" r="35.5" fill="black"/>
<path d="M27.7244 26.5455H30.8864V37.9489C30.8864 39.1989 30.5909 40.2983 30 41.2472C29.4148 42.196 28.5909 42.9375 27.5284 43.4716C26.4659 44 25.2244 44.2642 23.804 44.2642C22.3778 44.2642 21.1335 44 20.071 43.4716C19.0085 42.9375 18.1847 42.196 17.5994 41.2472C17.0142 40.2983 16.7216 39.1989 16.7216 37.9489V26.5455H19.8835V37.6847C19.8835 38.4119 20.0426 39.0597 20.3608 39.6278C20.6847 40.196 21.1392 40.642 21.7244 40.9659C22.3097 41.2841 23.0028 41.4432 23.804 41.4432C24.6051 41.4432 25.2983 41.2841 25.8835 40.9659C26.4744 40.642 26.929 40.196 27.2472 39.6278C27.5653 39.0597 27.7244 38.4119 27.7244 37.6847V26.5455ZM40.2763 44V26.5455H43.4382V34.5653H43.6513L50.4609 26.5455H54.3217L47.5717 34.3778L54.3814 44H50.5803L45.3729 36.517L43.4382 38.8011V44H40.2763Z" fill="white"/>
</svg>
